<?xml version="1.0" encoding="UTF-8"?>
<svg version="1.1" viewBox="0 0 1500 1500" width="1280" height="1280" xmlns="http://www.w3.org/2000/svg">
<path transform="translate(0)" d="m0 0h1500v1500h-1500z"/>
<path transform="translate(732,270)" d="m0 0h36l30 2 30 4 31 6 30 8 35 12 30 13 24 12 24 14 24 16 19 14 11 9 14 12 15 14 18 18 7 8 12 14 13 17 13 18 14 22 14 25 14 29 11 27 11 34 7 28 6 32 4 36 1 19v34l-2 30-4 31-6 31-9 33-10 29-11 26-12 25-11 20-13 21-14 20-10 13-9 11-12 14-14 15-16 16-8 7-15 13-17 13-18 13-22 14-25 14-22 11-29 12-36 12-26 7-31 6-31 4-30 2h-34l-30-2-31-4-31-6-33-9-29-10-26-11-25-12-20-11-21-13-20-14-13-10-11-9-14-12-15-14-16-16-7-8-13-15-13-17-13-18-14-22-14-25-11-22-10-24-9-25-7-23-6-24-6-32-4-36-1-19v-34l2-31 4-30 6-31 8-30 12-35 13-30 13-26 13-22 18-27 16-21 11-13 18-20 20-20 8-7 14-12 17-13 15-11 17-11 22-13 27-14 30-13 25-9 30-9 26-6 30-5 29-3z" fill="#FEFEFE"/>
<path transform="translate(736,255)" d="m0 0h28l33 2 32 4 35 7 30 8 35 12 30 13 28 14 24 14 21 14 18 13 16 13 14 12 15 14 19 19 7 8 12 14 11 14 13 18 10 15 15 25 14 27 9 19 12 31 9 28 8 32 6 33 3 25 2 33v28l-2 32-4 32-7 36-8 30-11 32-10 24-12 25-11 21-16 26-12 17-16 21-12 14-7 8-11 12-20 20-8 7-15 13-13 10-18 13-15 10-25 15-27 14-19 9-28 11-31 10-32 8-33 6-25 3-34 2h-26l-34-2-31-4-36-7-30-8-32-11-24-10-25-12-21-11-21-13-15-10-19-14-16-13-14-12-13-12-20-20-7-8-12-14-11-14-13-18-10-15-15-25-14-27-9-19-12-31-9-28-8-32-6-33-3-25-2-33v-28l2-33 4-31 7-36 8-30 12-35 13-30 15-30 15-25 12-18 13-18 13-16 12-14 14-15 19-19 8-7 14-12 17-13 16-12 22-14 24-14 30-15 34-14 34-11 32-8 33-6 25-3zm-4 15-30 2-30 4-31 6-33 9-29 10-26 11-25 12-20 11-21 13-16 11-17 13-11 9-14 12-13 12-19 19-7 8-12 14-13 17-11 15-11 17-9 15-10 18-11 22-12 29-12 36-7 26-6 31-4 30-2 31v34l2 31 4 30 6 31 9 33 10 29 10 24 12 25 13 24 14 22 12 17 10 13 9 11 11 13 15 16 16 16 8 7 15 13 17 13 18 13 22 14 25 14 29 14 30 12 31 10 28 7 32 6 36 4 19 1h34l30-2 31-4 31-6 30-8 35-12 30-13 24-12 24-14 24-16 19-14 13-11 11-9 17-16 16-16 7-8 13-15 13-17 13-18 14-22 14-25 14-29 12-30 10-31 7-28 6-32 4-36 1-19v-34l-2-30-4-31-6-31-9-33-10-29-11-26-12-25-12-22-14-22-12-17-10-13-9-11-11-13-14-15-18-18-8-7-15-13-20-15-17-12-19-12-25-14-22-11-29-12-36-12-26-7-31-6-30-4-30-2z"/>
<path transform="translate(732,250)" d="m0 0h36l30 2 32 4 31 6 27 7 25 8 27 10 29 13 25 13 25 15 19 13 19 14 11 9 14 12 12 11 26 26 7 8 11 13 13 17 13 18 11 17 14 24 13 25 11 25 10 27 8 25 9 36 6 36 3 30 1 19v34l-2 31-4 31-6 32-9 34-12 35-11 26-13 27-13 23-14 22-12 17-10 13-9 11-11 13-12 13-25 25-8 7-13 11-17 13-18 13-22 14-21 12-23 12-25 11-27 10-28 9-29 7-26 5-32 4-30 2h-36l-30-2-32-4-31-6-34-9-35-12-26-11-27-13-23-13-19-12-20-14-13-10-11-9-13-11-13-12-25-25-7-8-11-13-13-17-13-18-11-17-14-24-14-27-12-28-9-24-9-30-7-29-6-36-3-29-1-19v-36l2-30 4-32 6-31 7-27 8-25 8-22 10-23 12-25 13-23 12-19 11-16 16-21 11-13 12-14 31-31 8-7 13-11 17-13 15-11 20-13 24-14 25-13 25-11 24-9 25-8 30-8 31-6 32-4zm4 5-33 2-31 4-36 7-30 8-32 11-24 10-25 12-21 11-26 16-17 12-16 12-13 11-11 9-16 15-19 19-7 8-13 15-10 13-13 18-10 15-15 25-12 23-11 23-11 28-10 31-8 32-6 33-3 25-2 33v28l2 33 4 31 7 36 8 30 11 32 10 24 12 25 11 21 16 26 12 17 9 12 8 10 9 11 11 12 7 8 22 22 8 7 14 12 17 13 19 14 19 12 19 11 23 12 21 10 31 12 28 9 32 8 33 6 25 3 34 2h26l34-2 31-4 36-7 30-8 35-12 30-13 28-14 27-16 18-12 18-13 16-13 14-12 15-14 19-19 7-8 12-14 13-17 11-15 10-15 15-25 14-27 9-19 12-31 9-28 8-32 6-33 4-38 1-20v-28l-2-33-4-31-7-36-8-30-11-32-10-24-12-25-11-21-16-26-12-17-9-12-8-10-9-11-11-12-7-8-22-22-8-7-15-13-13-10-18-13-18-12-15-9-22-12-22-11-29-12-36-12-30-8-31-6-32-4-33-2z" fill="#FEFEFE"/>
<path transform="translate(811,622)" d="m0 0h7l3 4 1 34v97l-2 4-2 1h-9l-24-3-5-2v-4l3-1 20 1v-4l-3-1-20-1 1-5h22l1-4-24-1 1-5h23v-5h-23l-1-5 2-1h21l1-4-24-1 1-5h23v-5h-24l-1-3 1-2h24v-5h-21l-3-1 1-5h23v-5h-24l-1-3 1-2h24v-5h-17l-7-1-1-3 2-2h23v-4h-23l-2-4 2-2h23v-5h-24l1-5h23v-5h-23l-2-4 1-1 23-1 1-5h-24l-1-3 1-2 25-5z"/>
<path transform="translate(691,621)" d="m0 0h2l19 40 13 27 13 28 5 10v2l7-5 8-1 8 4 6 8 2 7v10l-3 7-4 4-9 1-6-3-6-8-18-39-3-5-7-6-16-33-11-23-4-10 1-10z"/>
<path transform="translate(964,777)" d="m0 0h29l9 3 5 6v10l-3 5-4 3-3 2 5 8 6 12 6 2v4h-13l-10-23-4-2-7-1v21l8 1-1 4h-23v-4l7-2 1-44-8-2z"/>
<path transform="translate(605,781)" d="m0 0h10l5 3 3 3 2 6v22l-3 8-5 4-10 1-7-3-4-6-1-4v-21l3-8 4-4z" fill="#FEFEFE"/>
<path transform="translate(771,777)" d="m0 0h24l-1 3-7 3-1 18h26v-19l-7-1-1-4h24l-1 3-7 3v43l7 2v4h-23v-4l7-2 1-20h-26l1 20 7 2v4h-23v-4l7-2v-43l-7-3z"/>
<path transform="translate(718,710)" d="m0 0 3 3 1 7-17 34-8 7-4 2h-6l-7-6-2-5v-10l5-12 8-7 2-1h8l6 4 2 1z"/>
<path transform="translate(641,777)" d="m0 0h14l10 13 12 17 6 8 1-33-8-2v-3h22l-1 3-7 3-1 49h-5l-13-18-12-17-4-5v34l7 2v4h-21l-1-2 1-2 7-2v-43l-8-3z"/>
<path transform="translate(928,777)" d="m0 0h6l4 8 16 41 6 2-1 4h-22v-4l7-1-4-12v-2h-20l-3 10-1 4 7 1v4h-20v-4l6-2 18-48z"/>
<path transform="translate(504,777)" d="m0 0h7l5 12 14 35 3 3 3 1v4h-22l-1-2 1-2 7-1-5-13h-19l-4 12 7 2-1 4h-19v-4l6-2z"/>
<path transform="translate(835,777)" d="m0 0h41l1 13h-4l-3-7-19-1v20l13-2 3-3 1-2h3v17h-3l-3-5-14-2v22l20-1 4-9h4l-1 15h-43v-4l7-2 1-44-8-2z"/>
<path transform="translate(602,777)" d="m0 0h16l8 4 5 6 3 11v13l-3 10-4 6-7 4-4 1h-12l-8-3-5-5-4-8-1-5v-13l3-11 5-6zm3 4-5 3-3 3-2 7v21l3 8 5 4 10 1 7-3 4-6 1-4v-22l-3-7-4-4-3-1z"/>
<path transform="translate(456,776)" d="m0 0 9 1 6 4 3 4-1 7-5 1-3-2 1-8-3-1h-10l-4 3v8l5 4 16 8 4 5 1 3v8l-3 5-5 4-5 2h-13l-10-4v-14l5-1 3 12 5 2h7l6-3 1-2v-7l-5-5-16-8-4-5-1-9 3-6 5-4z"/>
<path transform="translate(758,621)" d="m0 0 3 3 1 2v12l-11 23-17 34-3-3-4-7 1-5 29-58z"/>
<path transform="translate(1017,777)" d="m0 0h44v14h-4l-4-9-10-1v46l8 1-1 4h-23v-4l7-2 1-45h-11l-3 10h-4z"/>
<path transform="translate(721,777)" d="m0 0h44v14h-4l-3-8-1-1-10-1 1 45 7 2v4h-23v-4l7-1v-46l-10 1-5 10-3-1z"/>
<path transform="translate(540,777)" d="m0 0h24v3l-8 2v45h19l2-8h4l-1 9-1 4h-39l1-4 7-1v-45l-8-2z"/>
<path transform="translate(565,850)" d="m0 0 5 1 5 23 4-15 2-7 5-1 2 2 5 20 2-3 3-19 4-1 1 1-1 13-4 13-2 2h-6l-4-13-2-7-4 17-2 3h-6l-3-8-4-16z"/>
<path transform="translate(753,728)" d="m0 0 6 1 6 5 4 11-1 8-5 5-6-1-5-5-4-7-1-10 3-5z" fill="#FEFEFE"/>
<path transform="translate(694,728)" d="m0 0h6l4 4 1 2v7l-4 10-7 6h-7l-3-4v-13l5-8z" fill="#FEFEFE"/>
<path transform="translate(741,850)" d="m0 0h12l6 3 2 3v8l-5 6-3 1h-7v7l-5 1z"/>
<path transform="translate(1011,857)" d="m0 0 8 2 3 4 1 7-3 7-5 3-9-1-4-4-1-9 3-6z"/>
<path transform="translate(980,781)" d="m0 0h13l5 3 2 8-3 7-6 3h-11z" fill="#FEFEFE"/>
<path transform="translate(450,850)" d="m0 0 5 1 4 8 7 18v2h-5l-2-7h-13l-2 7h-5l7-20z"/>
<path transform="translate(678,846)" d="m0 0h5l1 13 7-2 5 3 1 4v15h-5l-1-16-4-1-3 3-1 14h-5z"/>
<path transform="translate(787,857)" d="m0 0 7 2 2 2v6l-3 3h-11l2 4 2 1h6l3-1 1 4-4 2h-7l-5-3-2-4v-9l2-4z"/>
<path transform="translate(882,857)" d="m0 0 8 2 1 2v6l-3 3h-10l1 5h8l4-1-1 5-9 1-5-3-3-5v-7l3-5 2-2z"/>
<path transform="translate(1053,857)" d="m0 0 6 2 2 5v15h-5l-1-16-4-1-3 3-1 14h-5v-21l4 1h2z"/>
<path transform="translate(853,845)" d="m0 0 6 2-1 3-7 1v6l6 1v4h-6v17h-4v-17h-4v-3l3-2v-8l3-3z"/>
<path transform="translate(919,857)" d="m0 0 7 2 2 5-1 2h-4l-2-4-5 1-1 2v7l3 3 9-1v4l-4 2-9-1-4-5-1-8 3-6z"/>
<path transform="translate(929,787)" d="m0 0 2 2 7 18v2h-16l1-5z" fill="#FEFEFE"/>
<path transform="translate(506,787)" d="m0 0 2 3 6 16v3h-15l1-6 5-15z" fill="#FEFEFE"/>
<path transform="translate(949,852)" d="m0 0h2l1 6h6v4h-6v14l6-2 1 4-4 2-6-1-2-2v-15l-3-1v-2l3-2z"/>
<path transform="translate(516,852)" d="m0 0 3 1v5h6v4h-6v14l6-2 1 4-4 2-6-1-2-3v-14l-3-1v-2l4-1v-5z"/>
<path transform="translate(650,852)" d="m0 0 3 1v5h7l-1 4h-6l1 13h6l-1 4-7 1-3-2v-16h-3l1-4h2z"/>
<path transform="translate(1010,861)" d="m0 0 5 1 3 4v6l-4 4h-5l-3-4v-7z" fill="#FEFEFE"/>
<path transform="translate(493,857)" d="m0 0 4 1-1 4-5 1-1 2-1 14h-5v-21l4 1 1 1 1-2z"/>
<path transform="translate(824,857)" d="m0 0 4 1v4l-6 1-1 2-1 14h-5v-21l4 1h2z"/>
<path transform="translate(976,858)" d="m0 0 5 1 1 16h2v4l-5 1-3-3z"/>
<path transform="translate(746,854)" d="m0 0h6l4 3v7l-4 3h-6z" fill="#FEFEFE"/>
<path transform="translate(622,858)" d="m0 0h4l1 17 3 1v3l-6 1-2-2z"/>
<path transform="translate(452,856)" d="m0 0 2 2 3 10h-9l3-10z" fill="#FEFEFE"/>
<path transform="translate(787,861)" d="m0 0 5 2-2 4h-7l1-5z" fill="#FEFEFE"/>
<path transform="translate(882,861)" d="m0 0 4 1 1 4-2 1h-6v-4z" fill="#FEFEFE"/>
<path transform="translate(622,848)" d="m0 0 5 1-1 5-5-1z"/>
<path transform="translate(977,848)" d="m0 0 4 1-1 5h-4l-1-4z"/>
</svg>
